<?xml version="1.0" encoding="iso-8859-1"?>
<!-- Generator: Adobe Illustrator 19.0.0, SVG Export Plug-In . SVG Version: 6.00 Build 0)  -->
<svg version="1.1" id="Capa_1" xmlns="http://www.w3.org/2000/svg" xmlns:xlink="http://www.w3.org/1999/xlink" x="0px" y="0px"
	 viewBox="0 0 512 512" style="enable-background:new 0 0 512 512;" xml:space="preserve">
<g>
	<g>
		<g>
			<path d="M486.4,0H25.6C11.461,0,0,11.461,0,25.6v384c0,14.138,11.461,25.6,25.6,25.6h179.2v59.733H128
				c-4.713,0-8.533,3.82-8.533,8.533S123.287,512,128,512h256c4.713,0,8.533-3.82,8.533-8.533s-3.82-8.533-8.533-8.533H221.867
				V435.2h68.267v25.6c0,4.713,3.82,8.533,8.533,8.533s8.533-3.82,8.533-8.533v-25.6h179.2c14.138,0,25.6-11.461,25.6-25.6v-384
				C512,11.461,500.539,0,486.4,0z M494.933,409.6c0,4.713-3.82,8.533-8.533,8.533H25.6c-4.713,0-8.533-3.82-8.533-8.533v-42.667
				h477.867V409.6z M494.933,349.867H17.067V25.6c0-4.713,3.82-8.533,8.533-8.533h460.8c4.713,0,8.533,3.82,8.533,8.533V349.867z"/>
			<path d="M435.2,76.8H76.8c-9.426,0-17.067,7.641-17.067,17.067v179.2c0,9.426,7.641,17.067,17.067,17.067H384
				c4.713,0,8.533-3.82,8.533-8.533s-3.82-8.533-8.533-8.533H76.8v-179.2h358.4V281.6c0,4.713,3.82,8.533,8.533,8.533
				s8.533-3.82,8.533-8.533V93.867C452.267,84.441,444.626,76.8,435.2,76.8z"/>
			<path d="M153.6,196.028c20.526-2.295,35.559-20.414,34.028-41.01s-19.081-36.292-39.72-35.525
				c-20.639,0.767-36.975,17.721-36.974,38.375c0,4.713,3.82,8.533,8.533,8.533s8.533-3.82,8.533-8.533
				c0-11.782,9.551-21.333,21.333-21.333c11.782,0,21.333,9.551,21.333,21.333c0,11.782-9.551,21.333-21.333,21.333h-4.267
				c-4.713,0-8.533,3.82-8.533,8.533V204.8c0,4.713,3.82,8.533,8.533,8.533s8.533-3.821,8.533-8.533V196.028z"/>
			<path d="M139.008,232.875c-3.3,3.365-3.3,8.752,0,12.117c3.34,3.312,8.73,3.298,12.051-0.033c3.322-3.331,3.322-8.721,0-12.052
				C147.738,229.577,142.348,229.562,139.008,232.875z"/>
			<path d="M341.333,153.6c0-4.713-3.821-8.533-8.533-8.533H221.867c-4.713,0-8.533,3.821-8.533,8.533
				c0,4.713,3.82,8.533,8.533,8.533H332.8C337.513,162.133,341.333,158.313,341.333,153.6z"/>
			<path d="M392.533,145.067h-25.6c-4.713,0-8.533,3.821-8.533,8.533c0,4.713,3.82,8.533,8.533,8.533h25.6
				c4.713,0,8.533-3.821,8.533-8.533C401.067,148.887,397.246,145.067,392.533,145.067z"/>
			<path d="M281.6,179.2h-59.733c-4.713,0-8.533,3.82-8.533,8.533s3.82,8.533,8.533,8.533H281.6c4.713,0,8.533-3.82,8.533-8.533
				S286.313,179.2,281.6,179.2z"/>
			<path d="M392.533,179.2h-76.8c-4.713,0-8.533,3.82-8.533,8.533s3.82,8.533,8.533,8.533h76.8c4.713,0,8.533-3.82,8.533-8.533
				S397.246,179.2,392.533,179.2z"/>
			<path d="M281.6,213.333h-59.733c-4.713,0-8.533,3.82-8.533,8.533s3.82,8.533,8.533,8.533H281.6c4.713,0,8.533-3.82,8.533-8.533
				S286.313,213.333,281.6,213.333z"/>
			<path d="M315.733,213.333c-4.713,0-8.533,3.82-8.533,8.533s3.82,8.533,8.533,8.533h34.133c4.713,0,8.533-3.82,8.533-8.533
				s-3.82-8.533-8.533-8.533H315.733z"/>
			<path d="M392.533,213.333H384c-4.713,0-8.533,3.82-8.533,8.533s3.82,8.533,8.533,8.533h8.533c4.713,0,8.533-3.82,8.533-8.533
				S397.246,213.333,392.533,213.333z"/>
		</g>
	</g>
</g>
<g>
</g>
<g>
</g>
<g>
</g>
<g>
</g>
<g>
</g>
<g>
</g>
<g>
</g>
<g>
</g>
<g>
</g>
<g>
</g>
<g>
</g>
<g>
</g>
<g>
</g>
<g>
</g>
<g>
</g>
</svg>
